<svg width="25" height="20" viewBox="0 0 25 20" fill="none" xmlns="http://www.w3.org/2000/svg">
<path fill-rule="evenodd" clip-rule="evenodd" d="M6.32239 1.18691C10.3015 0.841016 14.3032 0.841016 18.2823 1.18691L20.1904 1.35371C21.0774 1.43094 21.9127 1.8045 22.5616 2.41422C23.2105 3.02394 23.6353 3.83433 23.7676 4.71488C24.3406 8.52637 24.3406 12.4021 23.7676 16.2136C23.7171 16.5472 23.6261 16.8669 23.4997 17.1664C23.4163 17.3647 23.1585 17.3951 23.012 17.2359L17.4256 11.0897C17.3021 10.9538 17.1417 10.8568 16.9641 10.8104C16.7864 10.7639 16.5991 10.7701 16.4248 10.8282L13.2267 11.8946L8.58802 6.67598C8.50221 6.57944 8.39758 6.50146 8.28055 6.44682C8.16352 6.39219 8.03655 6.36205 7.90745 6.35827C7.77835 6.35448 7.64983 6.37712 7.5298 6.4248C7.40977 6.47248 7.30074 6.5442 7.20943 6.63554L1.00012 12.8449C0.957935 12.8882 0.904017 12.9183 0.844975 12.9315C0.785932 12.9447 0.724331 12.9403 0.667723 12.919C0.611115 12.8976 0.561961 12.8603 0.526286 12.8114C0.490611 12.7626 0.469965 12.7044 0.466881 12.6439C0.317459 9.99484 0.441101 7.3374 0.835851 4.71361C0.96813 3.83307 1.39294 3.02268 2.04185 2.41296C2.69077 1.80324 3.52603 1.42968 4.41309 1.35245L6.32239 1.18691ZM14.8289 6.67345C14.8289 6.17076 15.0286 5.68866 15.3841 5.3332C15.7395 4.97775 16.2216 4.77806 16.7243 4.77806C17.227 4.77806 17.7091 4.97775 18.0646 5.3332C18.42 5.68866 18.6197 6.17076 18.6197 6.67345C18.6197 7.17614 18.42 7.65824 18.0646 8.0137C17.7091 8.36915 17.227 8.56885 16.7243 8.56885C16.2216 8.56885 15.7395 8.36915 15.3841 8.0137C15.0286 7.65824 14.8289 7.17614 14.8289 6.67345Z" fill="#C7C7C7"/>
<path d="M0.880055 15.6449C0.845848 15.6794 0.820065 15.7212 0.80472 15.7672C0.789376 15.8133 0.784887 15.8622 0.791603 15.9103L0.835829 16.2136C0.968108 17.0941 1.39292 17.9045 2.04183 18.5142C2.69075 19.1239 3.526 19.4975 4.41307 19.5747L6.3211 19.7403C10.3014 20.0865 14.302 20.0865 18.2823 19.7403L20.1903 19.5747C20.7136 19.5294 21.2226 19.3804 21.6877 19.1363C21.8608 19.0465 21.8899 18.8178 21.7585 18.6738L16.5777 12.975C16.5366 12.9292 16.483 12.8965 16.4235 12.8808C16.364 12.865 16.3012 12.867 16.2429 12.8865L13.233 13.8898C13.057 13.9486 12.8677 13.9544 12.6884 13.9065C12.5092 13.8587 12.3479 13.7593 12.2246 13.6207L8.06107 8.93651C8.03241 8.90432 7.99746 8.87833 7.95838 8.86016C7.9193 8.84198 7.87691 8.83199 7.83383 8.83081C7.79074 8.82962 7.74787 8.83727 7.70785 8.85327C7.66783 8.86928 7.63151 8.8933 7.60112 8.92387L0.880055 15.6449Z" fill="#C7C7C7"/>
</svg>
